<svg version="1.1" id="Capa_1" xmlns="http://www.w3.org/2000/svg" x="0" y="0" viewBox="0 0 1000 1000" xml:space="preserve">
  <path
    fill="#FFFFFF"
    d="M939.81 1008.26H60.19C27 1008.26 0 981.26 0 948.07V60.19C0 27 27 0 60.19 0h879.63C973 0 1000 27 1000 60.19v887.88c0 33.19-27 60.19-60.19 60.19zM60.19 47.47c-6.89 0-12.71 5.82-12.71 12.71v887.88c0 6.89 5.82 12.71 12.71 12.71h879.63c6.89 0 12.71-5.82 12.71-12.71V60.19c0-6.89-5.82-12.71-12.71-12.71H60.19z"
  />
  <path
		fill="#FFFFFF"
    d="M677.42 778.72c-5.75 0-10.39-4.74-10.28-10.49.3-14.98 1.29-26.96 2.95-35.95 2.04-10.19 5.91-20.17 11.61-29.95 7.33-12.63 22.41-26.69 45.22-42.17 18.45-12.03 30.98-22.88 37.58-32.55.21-.31.4-.62.58-.94 4.3-7.58 6.44-15.16 6.44-22.73 0-30.56-17.52-45.84-52.56-45.84-21.59 0-36.87 4.99-45.83 14.97-7.71 8.58-12.25 22.21-13.63 40.88-.4 5.37-4.85 9.54-10.24 9.54h-76.33c-5.85 0-10.49-4.89-10.27-10.74 1.57-42.38 14.86-74.86 39.88-97.43 27.09-24.45 66.92-36.67 119.48-36.67 46.85 0 83.93 10.19 111.23 30.56 27.3 20.37 40.95 48.48 40.95 84.34 0 40.74-20.98 75.98-62.95 105.72-24.44 18.34-38.91 30.76-43.39 37.28-5.08 6.77-8.05 17.64-8.91 32.58-.31 5.4-4.84 9.59-10.25 9.59h-71.28zm-13.08 87.92c0-26.2 21.24-47.43 47.43-47.43h2.21c26.2 0 47.43 21.24 47.43 47.43 0 26.2-21.24 47.43-47.43 47.43h-2.21c-26.19 0-47.43-21.23-47.43-47.43z"
  />
</svg>
