<svg xmlns="http://www.w3.org/2000/svg" viewBox="0 0 480 480">
  <defs>
    <radialGradient id="a" cx="320.95" cy="338.45" fx="92.515" fy="266.266" r="372.55" gradientTransform="rotate(27.06 317.58 337.672)" gradientUnits="userSpaceOnUse">
      <stop offset=".15" stop-color="#f8b166" stop-opacity=".6"/>
      <stop offset=".22" stop-color="#f8b166" stop-opacity=".66"/>
      <stop offset=".34" stop-color="#f8b166" stop-opacity=".74"/>
      <stop offset=".47" stop-color="#f8b166" stop-opacity=".78"/>
      <stop offset=".6" stop-color="#f8b166" stop-opacity=".8"/>
      <stop offset="1" stop-color="#e72a5b" stop-opacity=".6"/>
    </radialGradient>
    <radialGradient id="b" cx="367.35" cy="378.77" r="503.18" gradientTransform="rotate(27.06 386.512 383.425) scale(1 1.02)" gradientUnits="userSpaceOnUse">
      <stop offset="0" stop-color="#e72a5b"/>
      <stop offset=".04" stop-color="#e72a5a" stop-opacity=".91"/>
      <stop offset=".12" stop-color="#e7295a" stop-opacity=".76"/>
      <stop offset=".2" stop-color="#e72959" stop-opacity=".65"/>
      <stop offset=".28" stop-color="#e72858" stop-opacity=".57"/>
      <stop offset=".37" stop-color="#e72858" stop-opacity=".52"/>
      <stop offset=".45" stop-color="#e72858" stop-opacity=".5"/>
      <stop offset=".49" stop-color="#e72858" stop-opacity=".54"/>
      <stop offset=".61" stop-color="#e72857" stop-opacity=".65"/>
      <stop offset=".74" stop-color="#e72857" stop-opacity=".73"/>
      <stop offset=".86" stop-color="#e72857" stop-opacity=".78"/>
      <stop offset="1" stop-color="#e72857" stop-opacity=".8"/>
    </radialGradient>
  </defs>
  <rect x="15" y="15" width="450" height="450" rx="80" fill="url(#a)"/>
  <rect x="15" y="15" width="450" height="450" rx="80" fill="url(#b)"/>
  <path d="M86.24 313.61 124.36 285c7.23 13.8 17.74 20.37 26.94 20.37 15.12 0 23.66-7.22 23.66-34.17V136.49h56.53v139.33c0 42.72-23 78.21-72.3 78.21-34.83-.03-57.19-13.15-72.95-40.42ZM339.87 187.75c0-11.83-8.55-16.43-18.4-16.43-11.18 0-18.41 5.91-27 13.8l-30.89-28.26c16.1-18.4 38.78-30.89 65.07-30.89 36.14 0 65.06 16.43 65.06 57.84 0 39.43-48 49.95-44.69 86.09h-49.24c-6.57-42.72 40.09-61.12 40.09-82.15Zm-48.64 132.1c0-19.06 13.81-34.17 32.86-34.17S357 300.79 357 319.85 343.15 354 324.09 354s-32.86-15.09-32.86-34.15Z" fill="#fff"/>
</svg>